<svg width="65" height="65" viewBox="0 0 65 65" fill="none" xmlns="http://www.w3.org/2000/svg">
<path d="M32.5 7C18.512 7 7.17599 18.336 7.17599 32.324C7.17599 46.312 18.512 57.648 32.5 57.648C46.488 57.648 57.824 46.312 57.824 32.324C57.824 18.336 46.488 7 32.5 7ZM36.2959 44.596C25.3239 39.1882 22.4639 29.464 22.0479 25.928C21.6319 22.3922 27.7681 19.272 27.7681 19.272L31.6162 25.8239C31.6162 25.8239 27.4561 28.0597 28.0281 29.256C31.096 35.7041 35.0483 38.0959 35.0483 38.0959C36.3483 38.5638 39.2084 35.3918 39.2084 35.3918L44.7203 40.5918C44.7718 40.5918 40.1438 46.4679 36.2956 44.5959L36.2959 44.596Z" fill="white"/>
</svg>
