<svg width="53" height="52" viewBox="0 0 53 52" fill="none" xmlns="http://www.w3.org/2000/svg">
<g clip-path="url(#clip0_2_142)">
<path d="M26.5 29.8144C28.6049 29.8144 30.3144 28.1049 30.3144 26C30.3144 23.8951 28.6049 22.1856 26.5 22.1856C24.394 22.1856 22.6856 23.8951 22.6856 26C22.6856 28.1049 24.394 29.8144 26.5 29.8144ZM34.7356 18.6437C35.8851 18.6437 36.8133 17.713 36.8133 16.5671C36.8133 15.4188 35.8847 14.4906 34.7356 14.4906C33.5894 14.4906 32.6601 15.4191 32.6601 16.5671C32.6597 17.713 33.5894 18.6437 34.7356 18.6437ZM34.1288 26.0005C34.1288 30.2135 30.713 33.6293 26.5 33.6293C22.287 33.6293 18.8712 30.2135 18.8712 26.0005C18.8712 25.1144 19.0304 24.2649 19.309 23.472H15.6212V33.8126C15.6212 35.5979 17.0826 37.0593 18.8691 37.0593H33.5906C35.376 37.0593 36.8374 35.5979 36.8374 33.8126V20.222H31.4727C33.0966 21.6217 34.1289 23.6885 34.1289 26.0005H34.1288ZM26.5 0.000488281C12.1406 0.000488281 0.499985 11.6411 0.499985 26.0005C0.499985 40.3599 12.1406 52.0005 26.5 52.0005C40.8594 52.0005 52.5 40.3599 52.5 26.0005C52.5 11.6411 40.8594 0.000488281 26.5 0.000488281ZM40.3821 36.5435C40.3821 38.9258 38.4332 40.8769 36.0487 40.8769H16.4094C14.0259 40.8769 12.0759 38.9258 12.0759 36.5435V16.9014C12.0759 14.5168 14.0259 12.568 16.4094 12.568H36.0515C38.4338 12.568 40.3849 14.5168 40.3849 16.9014V36.5435H40.3821Z" fill="white"/>
</g>
<defs>
<clipPath id="clip0_2_142">
<rect width="53" height="52.0006" fill="white"/>
</clipPath>
</defs>
</svg>
